# xmcd
#
# Track frame offsets: 
#        150
#        1212
#        16737
#        31800
#        39985
#        56927
#        58362
#        78030
#        87237
#        103662
#        111882
#
# Disc length: 1735 seconds
#
# Revision: 0
# Processed by: cddbd v1.5.1PL0 Copyright (c) Steve Scherf et al.
# Submitted via: ExactAudioCopy v0.95a5
#
DISCID=7d06c50b
DTITLE=Jonny Z - Sancho Villa
DYEAR=1999
DGENRE=Booty Bass
TTITLE0=Adlibs 1
TTITLE1=Sancho Villa
TTITLE2=Cali 2 Miami
TTITLE3=Get Outcha Clothes Ho
TTITLE4=The Chona (Radio Mix)
TTITLE5=Adlibs 2
TTITLE6=Freak You
TTITLE7=Magnifico
TTITLE8=Rock Da House
TTITLE9=Nuttin But Luv
TTITLE10=The Chona (Extended Mix)
EXTD=
EXTT0=
EXTT1=
EXTT2=
EXTT3=
EXTT4=
EXTT5=
EXTT6=
EXTT7=
EXTT8=
EXTT9=
EXTT10=
PLAYORDER=
